HIERARCHY
ROOT hips
{
  OFFSET 0 10.6860622 2.3727825e-15
  CHANNELS 6 Xposition Yposition Zposition Yrotation Xrotation Zrotation
  JOINT leftUpperLeg
  {
    OFFSET 0.6642549969 -0.9402397400000004 0
    CHANNELS 3 Yrotation Xrotation Zrotation
    JOINT leftLowerLeg
    {
      OFFSET 0 -3.997221335632195 0
      CHANNELS 3 Yrotation Xrotation Zrotation
      JOINT leftFoot
      {
        OFFSET -0.13777839790000004 -4.6145792000000005 -0.22186036399999998
        CHANNELS 3 Yrotation Xrotation Zrotation
        JOINT leftToes
        {
          OFFSET -0.03777410834999995 -0.9130806927000008 0.85230013
          CHANNELS 3 Yrotation Xrotation Zrotation
          End Site
          {
            OFFSET -0.03777410834999995 -0.9130806927000008 0.85230013
          }
        }
      }
    }
  }
  JOINT rightUpperLeg
  {
    OFFSET -0.6642778626 -0.9402397400000004 0
    CHANNELS 3 Yrotation Xrotation Zrotation
    JOINT rightLowerLeg
    {
      OFFSET 0 -3.997221452859387 0
      CHANNELS 3 Yrotation Xrotation Zrotation
      JOINT rightFoot
      {
        OFFSET 0.1377926176 -4.6145792000000005 -0.22185782299999995
        CHANNELS 3 Yrotation Xrotation Zrotation
        JOINT rightToes
        {
          OFFSET 0.037780746850000047 -0.9130806927000008 0.85230167
          CHANNELS 3 Yrotation Xrotation Zrotation
          End Site
          {
            OFFSET 0.037780746850000047 -0.9130806927000008 0.85230167
          }
        }
      }
    }
  }
  JOINT spine
  {
    OFFSET 0 0.13988381660000015 0
    CHANNELS 3 Yrotation Xrotation Zrotation
    JOINT chest
    {
      OFFSET 0 0.6191039003973773 0
      CHANNELS 3 Yrotation Xrotation Zrotation
      JOINT upperChest
      {
        OFFSET 0 0.9855186130586943 0
        CHANNELS 3 Yrotation Xrotation Zrotation
        JOINT leftShoulder
        {
          OFFSET 0.1807663869 1.5087829790000005 0
          CHANNELS 3 Yrotation Xrotation Zrotation
          JOINT leftUpperArm
          {
            OFFSET 0.5985063006419806 0 0
            CHANNELS 3 Yrotation Xrotation Zrotation
            JOINT leftLowerArm
            {
              OFFSET 2.2993332369501065 0 0
              CHANNELS 3 Yrotation Xrotation Zrotation
              JOINT leftHand
              {
                OFFSET 2.395047042602395 0 0
                CHANNELS 3 Yrotation Xrotation Zrotation
                JOINT leftIndexProximal
                {
                  OFFSET 0.5766295810000004 0.04556643899499946 0.17265095988184
                  CHANNELS 3 Yrotation Xrotation Zrotation
                  JOINT leftIndexIntermediate
                  {
                    OFFSET 0.2957229000000008 -0.019352197700001517 -0.007932640616999987
                    CHANNELS 3 Yrotation Xrotation Zrotation
                    JOINT leftIndexDistal
                    {
                      OFFSET 0.19008243099999922 -0.012484908149998475 -0.002786250786000012
                      CHANNELS 3 Yrotation Xrotation Zrotation
                      End Site
                      {
                        OFFSET 0.19008243099999922 -0.012484908149998475 -0.002786250786000012
                      }
                    }
                  }
                }
                JOINT leftMiddleProximal
                {
                  OFFSET 0.5834975091000001 0.0524350405149987 0.02204081888183999
                  CHANNELS 3 Yrotation Xrotation Zrotation
                  JOINT leftMiddleIntermediate
                  {
                    OFFSET 0.33880573540000003 -0.019871473270000717 -0.00000971183179999946
                    CHANNELS 3 Yrotation Xrotation Zrotation
                    JOINT leftMiddleDistal
                    {
                      OFFSET 0.20676022730000088 -0.012221336379999448 0.0001471936708000235
                      CHANNELS 3 Yrotation Xrotation Zrotation
                      End Site
                      {
                        OFFSET 0.20676022730000088 -0.012221336379999448 0.0001471936708000235
                      }
                    }
                  }
                }
                JOINT leftLittleProximal
                {
                  OFFSET 0.5344154683999995 -0.012880921405001189 -0.24414037221816004
                  CHANNELS 3 Yrotation Xrotation Zrotation
                  JOINT leftLittleIntermediate
                  {
                    OFFSET 0.21758961730000093 -0.011650919939999227 0.011893592810000034
                    CHANNELS 3 Yrotation Xrotation Zrotation
                    JOINT leftLittleDistal
                    {
                      OFFSET 0.1475273964999999 -0.008152365682999818 0.006001092492999946
                      CHANNELS 3 Yrotation Xrotation Zrotation
                      End Site
                      {
                        OFFSET 0.1475273964999999 -0.008152365682999818 0.006001092492999946
                      }
                    }
                  }
                }
                JOINT leftRingProximal
                {
                  OFFSET 0.5799399463000003 0.026911854694997794 -0.12150566991816003
                  CHANNELS 3 Yrotation Xrotation Zrotation
                  JOINT leftRingIntermediate
                  {
                    OFFSET 0.26167887460000006 -0.013480186499999602 0.010996293000000053
                    CHANNELS 3 Yrotation Xrotation Zrotation
                    JOINT leftRingDistal
                    {
                      OFFSET 0.17667108799999987 -0.008990287899999228 0.0055541023999999065
                      CHANNELS 3 Yrotation Xrotation Zrotation
                      End Site
                      {
                        OFFSET 0.17667108799999987 -0.008990287899999228 0.0055541023999999065
                      }
                    }
                  }
                }
                JOINT leftThumbProximal
                {
                  OFFSET 0.11018806699999972 -0.09448718900500053 0.17047963138184
                  CHANNELS 3 Yrotation Xrotation Zrotation
                  JOINT leftThumbIntermediate
                  {
                    OFFSET 0.31062601459999983 -0.08126270900000132 0.15443142000000007
                    CHANNELS 3 Yrotation Xrotation Zrotation
                    JOINT leftThumbDistal
                    {
                      OFFSET 0.21627175790000086 -0.08833193599999878 0.018771167799999988
                      CHANNELS 3 Yrotation Xrotation Zrotation
                      End Site
                      {
                        OFFSET 0.21627175790000086 -0.08833193599999878 0.018771167799999988
                      }
                    }
                  }
                }
              }
            }
          }
        }
        JOINT neck
        {
          OFFSET 0 1.5463305265074576 0
          CHANNELS 3 Yrotation Xrotation Zrotation
          JOINT head
          {
            OFFSET 0 0.8456443600000344 0
            CHANNELS 3 Yrotation Xrotation Zrotation
            JOINT leftEye
            {
              OFFSET 0.30408573140000006 0.5104519199999995 0.1276382305
              CHANNELS 3 Yrotation Xrotation Zrotation
              End Site
              {
                OFFSET 0.30408573140000006 0.5104519199999995 0.1276382305
              }
            }
            JOINT rightEye
            {
              OFFSET -0.30409491089999996 0.5104519199999995 0.1276379445
              CHANNELS 3 Yrotation Xrotation Zrotation
              End Site
              {
                OFFSET -0.30409491089999996 0.5104519199999995 0.1276379445
              }
            }
            JOINT jaw
            {
              OFFSET -3.155239131000001e-7 -0.11984121820000082 0.60178107
              CHANNELS 3 Yrotation Xrotation Zrotation
              End Site
              {
                OFFSET -3.155239131000001e-7 -0.11984121820000082 0.60178107
              }
            }
          }
        }
        JOINT rightShoulder
        {
          OFFSET -0.1807303465 1.5087829790000005 0
          CHANNELS 3 Yrotation Xrotation Zrotation
          JOINT rightUpperArm
          {
            OFFSET -0.5985063796536958 0 0
            CHANNELS 3 Yrotation Xrotation Zrotation
            JOINT rightLowerArm
            {
              OFFSET -2.2993322059002854 0 0
              CHANNELS 3 Yrotation Xrotation Zrotation
              JOINT rightHand
              {
                OFFSET -2.395045314457259 0 0
                CHANNELS 3 Yrotation Xrotation Zrotation
                JOINT rightIndexProximal
                {
                  OFFSET -0.5764487688300002 0.0441371204405987 0.17361932004999997
                  CHANNELS 3 Yrotation Xrotation Zrotation
                  JOINT rightIndexIntermediate
                  {
                    OFFSET -0.29573011380000047 -0.01934826376999843 -0.007698921482999974
                    CHANNELS 3 Yrotation Xrotation Zrotation
                    JOINT rightIndexDistal
                    {
                      OFFSET -0.19008373999999884 -0.012503266380000655 -0.0026365778999999897
                      CHANNELS 3 Yrotation Xrotation Zrotation
                      End Site
                      {
                        OFFSET -0.19008373999999884 -0.012503266380000655 -0.0026365778999999897
                      }
                    }
                  }
                }
                JOINT rightMiddleProximal
                {
                  OFFSET -0.5834852037300005 0.05211639405060153 0.02307162440000001
                  CHANNELS 3 Yrotation Xrotation Zrotation
                  JOINT rightMiddleIntermediate
                  {
                    OFFSET -0.33880114510000003 -0.019952774050000954 0.0002455003561999819
                    CHANNELS 3 Yrotation Xrotation Zrotation
                    JOINT rightMiddleDistal
                    {
                      OFFSET -0.20675694929999955 -0.012273788999999091 0.00030209124000002766
                      CHANNELS 3 Yrotation Xrotation Zrotation
                      End Site
                      {
                        OFFSET -0.20675694929999955 -0.012273788999999091 0.00030209124000002766
                      }
                    }
                  }
                }
                JOINT rightLittleProximal
                {
                  OFFSET -0.5346811737299992 -0.011214256288399227 -0.24363941305000003
                  CHANNELS 3 Yrotation Xrotation Zrotation
                  JOINT rightLittleIntermediate
                  {
                    OFFSET -0.21757715980000092 -0.011771559690000988 0.01201554387
                    CHANNELS 3 Yrotation Xrotation Zrotation
                    JOINT rightLittleDistal
                    {
                      OFFSET -0.1475201849000004 -0.00822055339600003 0.006082065407000015
                      CHANNELS 3 Yrotation Xrotation Zrotation
                      End Site
                      {
                        OFFSET -0.1475201849000004 -0.00822055339600003 0.006082065407000015
                      }
                    }
                  }
                }
                JOINT rightRingProximal
                {
                  OFFSET -0.5800810755299999 0.027657985680600072 -0.12066365025000003
                  CHANNELS 3 Yrotation Xrotation Zrotation
                  JOINT rightRingIntermediate
                  {
                    OFFSET -0.26166445029999974 -0.013623118409999302 0.011164098990000045
                    CHANNELS 3 Yrotation Xrotation Zrotation
                    JOINT rightRingDistal
                    {
                      OFFSET -0.17666387530000027 -0.009072900100000503 0.005668185599999959
                      CHANNELS 3 Yrotation Xrotation Zrotation
                      End Site
                      {
                        OFFSET -0.17666387530000027 -0.009072900100000503 0.005668185599999959
                      }
                    }
                  }
                }
                JOINT rightThumbProximal
                {
                  OFFSET -0.10997596379000074 -0.09577489355940072 0.16989765924999997
                  CHANNELS 3 Yrotation Xrotation Zrotation
                  JOINT rightThumbIntermediate
                  {
                    OFFSET -0.31036620999999986 -0.08229339117999834 0.15440884469999996
                    CHANNELS 3 Yrotation Xrotation Zrotation
                    JOINT rightThumbDistal
                    {
                      OFFSET -0.21631306399999906 -0.08825326400000111 0.018656797720000014
                      CHANNELS 3 Yrotation Xrotation Zrotation
                      End Site
                      {
                        OFFSET -0.21631306399999906 -0.08825326400000111 0.018656797720000014
                      }
                    }
                  }
                }
              }
            }
          }
        }
      }
    }
  }
}
MOTION
Frames: 7
Frame Time: 0.03333333333333333
0 0 -0.17423543147102152 0 22.647375291781973 0 11.895447539739688 -20.704918385296292 -7.14850548094745 16.79475550944727 78.5194509137045 24.37638919141674 50.82846606089453 63.82705897144223 30.095704720232895 0 0 0 -11.924439606072186 -20.831865707060807 7.239034315395675 -43.19998708081915 83.51447747648791 -49.73516825477784 -6.524262652923825 35.31695226121092 8.737206455600992 0 0 0 -0.07650461796080975 -4.872001906271352 -0.5412814162570894 -0.7930767841293255 9.59751735106467 -0.8218531108029531 0 0 0 6.788977083783067 15.139750076720908 7.161232256256467 2.18947136273391 0.9496515105735518 -77.91756885361616 16.574190846272646 5.4970768283608775 -26.14941361065582 -28.263527749519366 7.0680833256597415 0.6147673182793972 0 0 0 0 0 0 0 0 0 0 0 0 0 0 0 0 0 0 0 0 0 0 0 0 0 0 0 0 0 0 0 0 0 0 0 0 0 0 0 0 0 0 0 0 0 0 8.524348324908225 0 0 9.450059931182594 0 0 0 0 0 0 0 0 0 0 7.162865954296202 4.7451653661534134 2.672505893851697 33.979482598327905 -11.757766052369087 75.62187313941664 37.55548972444519 6.3387462064933535 5.029272019444283 -3.2482830350748584 -30.45514813567672 -1.179762366666336 0 0 0 0 0 0 0 0 0 0 0 0 0 0 0 0 0 0 0 0 0 0 0 0 0 0 0 0 0 0 0 0 0 0 0 0 0 0 0 0 0 0 0 0 0
0 0 -0.16506527273730678 0 22.29690702549571 0 11.825618826954235 -20.234064067359853 -7.052391042877801 16.739515311212482 78.49473497945455 24.320001424315265 50.82846606089453 63.82705897144223 30.095704720232895 0 0 0 -11.849091245046223 -20.36236594492092 7.147064935286172 -43.02261694175984 83.49732664627334 -49.55680327862438 -6.524262652923825 35.31695226121092 8.737206455600992 0 0 0 -0.076564832991699 -5.297801794472536 -0.5407153520161377 -0.7979491773439069 11.457863919054645 -0.8480914247061031 0 0 0 6.572410620939659 14.277740656208126 6.903770624086802 2.18947136273391 0.9496515105735518 -77.91756885361616 16.426411366369358 5.438717529027393 -25.96683918274363 -28.296237047484365 6.819900300880271 0.5817634019868141 0 0 0 0 0 0 0 0 0 0 0 0 0 0 0 0 0 0 0 0 0 0 0 0 0 0 0 0 0 0 0 0 0 0 0 0 0 0 0 0 0 0 0 0 0 0 8.524348324908225 0 0 9.90092768741233 0 0 0 0 0 0 0 0 0 0 7.199345879982775 4.4204372520461 3.125326172258988 34.23423052543308 -11.857941751235732 74.66358592270863 37.557441188860636 6.360592971102013 5.029490604706508 -2.7541840518143 -29.85687834760867 -0.8739898738901417 0 0 0 0 0 0 0 0 0 0 0 0 0 0 0 0 0 0 0 0 0 0 0 0 0 0 0 0 0 0 0 0 0 0 0 0 0 0 0 0 0 0 0 0 0
0 0 -0.15589484561132075 0 21.946441201979923 0 11.756839321101413 -19.76313125345446 -6.957179815840829 16.684522829747625 78.47000297167004 24.26386171284848 50.82846606089453 63.82705897144223 30.095704720232895 0 0 0 -11.774775131439103 -19.892789854724942 7.056034147054484 -42.8463143224731 83.48010043356386 -49.37950436719376 -6.524262652923825 35.31695226121092 8.737206455600992 0 0 0 -0.0766283609853449 -5.723577411827805 -0.5401483939265788 -0.803724865625921 13.316242487710639 -0.8746509162110468 0 0 0 6.360684695524625 13.415024785115387 6.650677661670442 2.18947136273391 0.9496515105735518 -77.91756885361616 16.27845932680711 5.380828253176019 -25.784131780938218 -28.328783980712355 6.5717044044044 0.5489199209459934 0 0 0 0 0 0 0 0 0 0 0 0 0 0 0 0 0 0 0 0 0 0 0 0 0 0 0 0 0 0 0 0 0 0 0 0 0 0 0 0 0 0 0 0 0 0 8.524348324908225 0 0 10.351769866542421 0 0 0 0 0 0 0 0 0 0 7.233233318715504 4.0954648848349695 3.577704660090039 34.4906886698638 -11.953914635912918 73.70478192652583 37.55938464656317 6.382440234773552 5.029710540234443 -2.2594740115036713 -29.26106747066305 -0.5641973637658398 0 0 0 0 0 0 0 0 0 0 0 0 0 0 0 0 0 0 0 0 0 0 0 0 0 0 0 0 0 0 0 0 0 0 0 0 0 0 0 0 0 0 0 0 0
0 0 -0.14672468687760604 0 21.59600330434737 0 11.689096835254587 -19.29213781661716 -6.862852886358154 16.62973397392906 78.44523793804709 24.207925154104093 50.82846606089453 63.82705897144223 30.095704720232895 0 0 0 -11.70147549374489 -19.423157416339652 6.965925930473012 -42.670902744699866 83.46279943017342 -49.20309982985683 -6.524262652923825 35.31695226121092 8.737206455600992 0 0 0 -0.07669720960729487 -6.149317037797466 -0.5395804886864903 -0.8104302225043516 15.171687239959487 -0.9015825048596215 0 0 0 6.1536756642782215 12.551741985813536 6.401823385329527 2.18947136273391 0.9496515105735518 -77.91756885361616 16.130341900223993 5.323412236705021 -25.601294732886338 -28.36117063595796 6.323496155971304 0.5162349134980068 0 0 0 0 0 0 0 0 0 0 0 0 0 0 0 0 0 0 0 0 0 0 0 0 0 0 0 0 0 0 0 0 0 0 0 0 0 0 0 0 0 0 0 0 0 0 8.524348324908225 0 0 10.80257000760903 0 0 0 0 0 0 0 0 0 0 7.264529280133806 3.7702804792202036 4.029650743119497 34.748730992112975 -12.04563425262869 72.74560813166477 37.56132428706539 6.404285852910873 5.029929813362845 -1.7641234952912415 -28.667828413740068 -0.2504483147139124 0 0 0 0 0 0 0 0 0 0 0 0 0 0 0 0 0 0 0 0 0 0 0 0 0 0 0 0 0 0 0 0 0 0 0 0 0 0 0 0 0 0 0 0 0
0 0 -0.13755425975161997 0 21.24558922681508 0 11.62237464849346 -18.821108518189515 -6.769396230451081 16.575196736743 78.42047411006472 24.152240072020927 50.82846606089453 63.82705897144223 30.095704720232895 0 0 0 -11.629177511260785 -18.953482842147512 6.876722467923706 -42.49641653045832 83.44545414199888 -49.02762129155523 -6.524262652923825 35.31695226121092 8.737206455600992 0 0 0 -0.07677048275251305 -6.5750106062494265 -0.5390105732379354 -0.8180921240750725 17.02322367294106 -0.9289345203200878 0 0 0 5.951267356611388 11.688036175232856 6.15708140123655 2.18947136273391 0.9496515105735518 -77.91756885361616 15.982062564852926 5.266468431294082 -25.418329890005868 -28.393403732442316 6.075281222147618 0.48370800811541115 0 0 0 0 0 0 0 0 0 0 0 0 0 0 0 0 0 0 0 0 0 0 0 0 0 0 0 0 0 0 0 0 0 0 0 0 0 0 0 0 0 0 0 0 0 0 8.524348324908225 0 0 11.253314980894835 0 0 0 0 0 0 0 0 0 0 7.293240252960017 3.4449212845136272 4.481171716437064 35.008247345588764 -12.133060689024381 71.78620325291962 37.563282741635255 6.42613240599455 5.03015129300397 -1.2681127161674717 -28.07729617969966 0.06718835997037942 0 0 0 0 0 0 0 0 0 0 0 0 0 0 0 0 0 0 0 0 0 0 0 0 0 0 0 0 0 0 0 0 0 0 0 0 0 0 0 0 0 0 0 0 0
0 0 -0.1283841010179053 0 20.895213154424635 0 11.556660526884693 -18.350065931566714 -6.67679271017996 16.52089287869896 78.39569449776445 24.09678873586871 50.82846606089453 63.82705897144223 30.095704720232895 0 0 0 -11.557860249831041 -18.483780073594016 6.788405989887545 -42.32276619657688 83.42803507760713 -48.852974069294774 -6.524262652923825 35.31695226121092 8.737206455600992 0 0 0 -0.07684695110900304 -7.000645404089358 -0.5384416229093435 -0.8267456491427585 18.86991579431949 -0.956763429313217 0 0 0 5.7533473258673675 10.824042911065183 5.916332816653288 2.18947136273391 0.9496515105735518 -77.91756885361616 15.833623587410377 5.210000508152342 -25.23525274233391 -28.42546531253434 5.827058389977881 0.4513373931894949 0 0 0 0 0 0 0 0 0 0 0 0 0 0 0 0 0 0 0 0 0 0 0 0 0 0 0 0 0 0 0 0 0 0 0 0 0 0 0 0 0 0 0 0 0 0 8.524348324908225 0 0 11.703988899358455 0 0 0 0 0 0 0 0 0 0 7.319367109228979 3.1194242429812005 4.932275504454697 35.26913475201751 -12.216168972847917 70.82675217670895 37.56523046717628 6.447979897321212 5.030373394355421 -0.7714201684952019 -27.489581224708232 0.3886508765810368 0 0 0 0 0 0 0 0 0 0 0 0 0 0 0 0 0 0 0 0 0 0 0 0 0 0 0 0 0 0 0 0 0 0 0 0 0 0 0 0 0 0 0 0 0
0 0 -0.11921367389191925 0 20.544872703692707 0 11.491934802413352 -17.87901613669713 -6.585022943184456 16.466831742636355 78.37091613808145 24.041577915101335 50.82846606089453 63.82705897144223 30.095704720232895 0 0 0 -11.48751676063764 -18.014078956418558 6.700961359971947 -42.1501136461632 83.41057257802879 -48.679325224443495 -6.524262652923825 35.31695226121092 8.737206455600992 0 0 0 -0.0769288732333548 -7.4262094959648985 -0.5378705866377146 -0.836425799926407 20.710820167539275 -0.9851244258971805 0 0 0 5.559805751649983 9.959901139962481 5.679457837129368 2.18947136273391 0.9496515105735518 -77.91756885361616 15.685026767886487 5.154009140694755 -25.052054454559137 -28.457377535142136 5.578831592728626 0.4191218796112142 0 0 0 0 0 0 0 0 0 0 0 0 0 0 0 0 0 0 0 0 0 0 0 0 0 0 0 0 0 0 0 0 0 0 0 0 0 0 0 0 0 0 0 0 0 0 8.524348324908225 0 0 12.15458007272387 0 0 0 0 0 0 0 0 0 0 7.342912352901054 2.7938236518417265 5.3829726187068285 35.531269379603415 -12.294931630933192 69.86741759754692 37.56717710272591 6.4698253228281 5.030595689609023 -0.27402782309235924 -26.90481814895201 0.7138776139692606 0 0 0 0 0 0 0 0 0 0 0 0 0 0 0 0 0 0 0 0 0 0 0 0 0 0 0 0 0 0 0 0 0 0 0 0 0 0 0 0 0 0 0 0 0
